<svg width="92" height="25" viewBox="0 0 92 25" fill="none" xmlns="http://www.w3.org/2000/svg">
<path d="M19.5781 25H13.7344L7.37598 14.7734L5.20117 16.334V25H0.0546875V0.728516H5.20117V11.835C5.54427 11.359 5.88184 10.8831 6.21387 10.4072C6.5459 9.93132 6.88346 9.4554 7.22656 8.97949L13.8008 0.728516H19.5117L11.0449 11.4697L19.5781 25ZM37.4912 25L35.7314 19.2227H26.8828L25.123 25H19.5781L28.1445 0.628906H34.4365L43.0361 25H37.4912ZM34.5029 14.9062L32.7432 9.26172C32.6325 8.88542 32.4831 8.40397 32.2949 7.81738C32.1178 7.21973 31.9352 6.61654 31.7471 6.00781C31.57 5.38802 31.4261 4.85124 31.3154 4.39746C31.2048 4.85124 31.0498 5.41569 30.8506 6.09082C30.6624 6.75488 30.4798 7.38574 30.3027 7.9834C30.1257 8.58105 29.9984 9.00716 29.9209 9.26172L28.1777 14.9062H34.5029ZM46.1074 25V0.728516H51.2539V20.75H61.0986V25H46.1074ZM75.6084 25L69.7646 5.95801H69.6152C69.6374 6.41178 69.6706 7.09798 69.7148 8.0166C69.7702 8.92415 69.82 9.89258 69.8643 10.9219C69.9085 11.9512 69.9307 12.8809 69.9307 13.7109V25H65.332V0.728516H72.3379L78.082 19.2891H78.1816L84.2744 0.728516H91.2803V25H86.4824V13.5117C86.4824 12.748 86.4935 11.8682 86.5156 10.8721C86.5488 9.87598 86.5876 8.92969 86.6318 8.0332C86.6761 7.12565 86.7093 6.44499 86.7314 5.99121H86.582L80.3232 25H75.6084Z" fill="#339AF0"/>
</svg>
